<?xml version="1.0" encoding="UTF-8"?>
<svg version="1.1" xmlns="http://www.w3.org/2000/svg" width="413" height="114">
<path d="M0 0 C3.33761045 2.15090451 4.73470933 3.20412799 6 7 C7.44213187 19.45907369 2.25833903 30.18722406 -5 40 C-6.15296137 41.24203135 -7.31827838 42.47280011 -8.5 43.6875 C-10.1893296 45.56603452 -10.93815275 46.50617348 -11.25390625 49.02734375 C-10.86494267 53.29006704 -9.51566047 56.49995065 -7 60 C-4.1982633 60.29170908 -4.1982633 60.29170908 -1 59 C3.16563428 54.0931125 5.38521296 48.16823535 7.5625 42.1875 C9.68237309 36.49661041 11.41205783 32.79741441 17.03515625 29.98046875 C22.69933364 27.69730977 26.32473511 27.7876086 32 30 C34.84108968 32.33115051 36.75293055 34.23521823 37.2734375 37.953125 C37.45907936 42.15148712 37.45668199 45.07490427 34.75 48.4375 C30.20993654 52.66801368 27.46383077 53.24927662 21.25 53.125 C20.07953125 53.10695312 18.9090625 53.08890625 17.703125 53.0703125 C16.81109375 53.04710937 15.9190625 53.02390625 15 53 C17.11326526 57.70842624 17.11326526 57.70842624 21 61 C25.77886367 61.89544783 29.9836261 61.41021998 34.25 59.0625 C40.2381614 54.83276695 42.4812022 48.4909947 44.875 41.8125 C47.25926206 35.63072378 51.01028982 32.52807409 56.8125 29.5625 C60.61975537 28.89063141 63.84884548 29.27689609 67.66015625 29.78125 C70.27925653 30.02610745 72.44650638 29.55857673 75 29 C77 31 77 31 77.11938477 33.65795898 C77.0312854 35.31033569 77.0312854 35.31033569 76.94140625 36.99609375 C76.88533203 38.19427734 76.82925781 39.39246094 76.77148438 40.62695312 C76.70251953 41.88443359 76.63355469 43.14191406 76.5625 44.4375 C76.43384251 46.91511202 76.30991915 49.39297576 76.19140625 51.87109375 C76.10161499 53.52516235 76.10161499 53.52516235 76.01000977 55.21264648 C75.85119994 58.08632075 75.85119994 58.08632075 77 61 C80.15649129 59.95013857 80.99958366 59.00069297 82.74609375 56.09375 C83.30425781 54.9078125 83.86242187 53.721875 84.4375 52.5 C84.74042969 51.87287109 85.04335937 51.24574219 85.35546875 50.59960938 C86.7187628 47.77192956 88.03260267 44.92724864 89.31640625 42.0625 C92.22744533 35.76005235 95.67452853 31.16273573 102 28 C104.6723621 27.86584528 107.32250488 27.95681459 110 28 C110.17015625 26.7934375 110.3403125 25.586875 110.515625 24.34375 C110.75970618 22.72905911 111.00453807 21.11448157 111.25 19.5 C111.35957031 18.70851563 111.46914062 17.91703125 111.58203125 17.1015625 C112.43721567 11.61037831 113.81909229 6.63238986 117 2 C121.02548456 -0.68365637 124.27325964 -0.78494605 129 0 C131.5625 1.8125 131.5625 1.8125 133 5 C135.04597988 17.62046537 129.5442867 29.72776739 123.73046875 40.58276367 C120.40529219 46.71945153 120.40529219 46.71945153 120.55859375 53.45703125 C120.84863281 54.23433594 121.13867188 55.01164062 121.4375 55.8125 C121.72496094 56.60269531 122.01242188 57.39289063 122.30859375 58.20703125 C122.53675781 58.79871094 122.76492187 59.39039063 123 60 C126.70715552 59.59468908 126.70715552 59.59468908 129.5546875 57.34765625 C133.67096973 50.22332162 136.61221451 42.76293757 139.484375 35.07421875 C139.74927734 34.36700684 140.01417969 33.65979492 140.28710938 32.93115234 C140.88137526 31.32134303 141.45154876 29.70266568 142.015625 28.08203125 C143 26 143 26 146 24 C148.5625 24.125 148.5625 24.125 151 25 C152.375 26.6875 152.375 26.6875 153 29 C152.76925781 29.90492187 152.53851563 30.80984375 152.30078125 31.7421875 C151.89473992 36.14008972 153.34426489 37.83672969 155.8125 41.4375 C158.91732213 46.0040614 160.73227633 49.69434169 162 55 C164.60898179 49.97450229 167.03477147 45.02637964 168.9375 39.6875 C171.00007459 34.33322473 173.82560759 31.58719621 179 29 C189.33681723 28.06861765 189.33681723 28.06861765 194.125 30.75 C196.39337985 33.47205582 197.92389169 35.58184851 198.1171875 39.18359375 C197.57643174 44.21611107 196.88995468 47.43420821 193 51 C188.48968167 53.78578485 183.13792725 53.3744591 178 53 C177.01 52.67 176.02 52.34 175 52 C177.38322632 57.50918979 177.38322632 57.50918979 182 61 C187.57398918 61.53941831 191.27972264 61.28367121 196 58 C201.02849157 52.98407965 203.02131888 47.46196363 205.078125 40.77734375 C206.68675096 35.93101725 208.4470671 32.97902292 212.875 30.1875 C218.9608593 27.87487347 222.92876523 27.70756467 229.0078125 30 C231 31 231 31 233.0625 33.125 C234.38805923 37.1900483 234.8031255 40.77615477 234 45 C231.95647307 48.82755838 229.05878785 51.47090805 225 53 C221.765625 53.1953125 221.765625 53.1953125 218.25 53.125 C217.07953125 53.10695312 215.9090625 53.08890625 214.703125 53.0703125 C213.81109375 53.04710937 212.9190625 53.02390625 212 53 C214.11326526 57.70842624 214.11326526 57.70842624 218 61 C223.10056753 61.85009459 227.97530747 61.41229738 232.3828125 58.5078125 C236.62715456 54.55052739 239.02719384 49.07046444 241.4609375 43.890625 C244.79198726 36.80553503 247.7479486 31.6260257 255 28 C257.6723621 27.86584528 260.32250488 27.95681459 263 28 C263.17015625 26.7934375 263.3403125 25.586875 263.515625 24.34375 C263.75970618 22.72905911 264.00453807 21.11448157 264.25 19.5 C264.41435547 18.31277344 264.41435547 18.31277344 264.58203125 17.1015625 C265.43721567 11.61037831 266.81909229 6.63238986 270 2 C274.02548456 -0.68365637 277.27325964 -0.78494605 282 0 C284.5625 1.8125 284.5625 1.8125 286 5 C288.04597988 17.62046537 282.5442867 29.72776739 276.73046875 40.58276367 C273.40529219 46.71945153 273.40529219 46.71945153 273.55859375 53.45703125 C273.84863281 54.23433594 274.13867188 55.01164062 274.4375 55.8125 C274.72496094 56.60269531 275.01242187 57.39289063 275.30859375 58.20703125 C275.53675781 58.79871094 275.76492188 59.39039063 276 60 C279.12909337 59.69769776 280.58385027 59.47464082 282.6953125 57.06640625 C285.66107816 51.87226475 287.73700742 47.02479345 289.30078125 41.2578125 C291.13848777 35.32376575 294.602051 31.85773771 300 29 C305.23318483 27.66791659 309.0039498 27.92616784 314 30 C318.98276042 35.24501097 318.98276042 35.24501097 319.01953125 38.98828125 C318.56269382 44.11692791 317.96192537 47.36823508 314 51 C309.48968167 53.78578485 304.13792725 53.3744591 299 53 C298.01 52.67 297.02 52.34 296 52 C298.38322632 57.50918979 298.38322632 57.50918979 303 61 C308.57398918 61.53941831 312.27972264 61.28367121 317 58 C321.7103636 53.5239215 324.03692488 47.95823255 326.3125 42 C326.69438477 41.00383667 326.69438477 41.00383667 327.08398438 39.98754883 C328.34028555 36.50405161 329.16054555 33.28377317 329.5390625 29.59375 C329.76722656 27.81484375 329.76722656 27.81484375 330 26 C332.0625 24.5 332.0625 24.5 334 24 C334.721875 24.804375 335.44375 25.60875 336.1875 26.4375 C339.99267808 29.90444003 342.2375211 30 347.25 30 C348.1575 30 349.065 30 350 30 C350.33 30.33 350.66 30.66 351 31 C350.75819804 36.6823461 348.81889041 40.78091446 346.15625 45.765625 C343.98248577 49.9662775 343.74874714 53.30994658 344 58 C344.66 58.99 345.32 59.98 346 61 C349.13196518 60.7390029 350.6526076 60.3361862 352.9375 58.125 C355.43257662 54.34458088 357.43898229 50.39032947 359.4375 46.328125 C361 44 361 44 363.125 43.109375 C363.74375 43.07328125 364.3625 43.0371875 365 43 C365.33 43.33 365.66 43.66 366 44 C365.83370912 51.48308961 362.32354036 59.30109508 357.33984375 64.84765625 C352.84542358 68.63533713 349.85515887 69.48792991 344 69 C340.71037521 67.32415341 338.63712327 65.98464506 336.625 62.875 C334.57569211 53.44818373 336.74162519 45.51674961 341 37 C339.02 36.34 337.04 35.68 335 35 C334.773125 36.2375 334.54625 37.475 334.3125 38.75 C331.78481553 49.89638639 327.32871712 59.7585434 317.75 66.4375 C312.27184176 69.55008991 307.16116007 69.47733521 301 69 C295.71185774 67.23728591 293.2652082 64.32159909 290 60 C288.88625 61.1446875 288.88625 61.1446875 287.75 62.3125 C286.8425 63.199375 285.935 64.08625 285 65 C284.401875 65.598125 283.80375 66.19625 283.1875 66.8125 C279.85817216 68.6198494 276.63730244 68.79385569 273 68 C270.30894802 65.82425584 268.54467072 64.08934144 267 61 C266.5153125 61.49371094 266.030625 61.98742187 265.53125 62.49609375 C260.69983936 67.11380738 257.75652225 69.11076266 251 69 C246.01106348 67.95580398 243.96462789 64.89636809 241 61 C240.49210937 61.40992188 239.98421875 61.81984375 239.4609375 62.2421875 C232.98608925 67.31051441 227.8363113 69.49560084 219.53515625 69.3203125 C214.45906869 68.67895783 210.48785736 66.58084844 207 62.875 C206 61 206 61 206 59 C205.33613281 59.55429688 204.67226562 60.10859375 203.98828125 60.6796875 C203.10527344 61.40414062 202.22226563 62.12859375 201.3125 62.875 C200.00732422 63.95394531 200.00732422 63.95394531 198.67578125 65.0546875 C192.69659815 69.40159726 187.19796871 69.65822133 180 69 C174.42039969 67.21031688 171.47874914 63.50263629 168 59 C167.59910156 59.38671875 167.19820312 59.7734375 166.78515625 60.171875 C161.8333237 64.70824767 156.50076247 68.76882119 149.56640625 69.125 C145.28466691 68.78752301 142.14121301 68.14121301 139 65 C139.33 63.35 139.66 61.7 140 60 C143.11114675 58.96295108 144.46027098 59.0464232 147.625 59.5 C149.07816776 59.70692356 150.53681137 59.88341126 152 60 C152.33 59.67 152.66 59.34 153 59 C153 50.81435863 150.03502877 46.29707253 145 40 C144.34644531 41.7015625 144.34644531 41.7015625 143.6796875 43.4375 C136.09330275 62.77752917 136.09330275 62.77752917 128 68 C122.94252874 68.64221857 122.94252874 68.64221857 120 68 C117.30894802 65.82425584 115.54467072 64.08934144 114 61 C113.5153125 61.49371094 113.030625 61.98742187 112.53125 62.49609375 C107.69983936 67.11380738 104.75652225 69.11076266 98 69 C93.48034798 67.94891813 91.09652349 65.36193979 88 62 C87.21625 62.969375 86.4325 63.93875 85.625 64.9375 C83.26712686 67.85381678 82.04002324 68.88444186 78.1875 69.3125 C74.27672704 68.92909089 72.7456925 67.7456925 70 65 C70 64.34 70 63.68 70 63 C69.29423828 63.52400391 69.29423828 63.52400391 68.57421875 64.05859375 C67.95160156 64.51363281 67.32898438 64.96867187 66.6875 65.4375 C66.07261719 65.88996094 65.45773438 66.34242187 64.82421875 66.80859375 C60.97354699 69.32348644 57.48277111 69.37989586 53 69 C49.89960457 67.24505919 47.51174333 65.51174333 45 63 C45 62.01 45 61.02 45 60 C44.25234375 60.56589844 43.5046875 61.13179687 42.734375 61.71484375 C41.74953125 62.44832031 40.7646875 63.18179688 39.75 63.9375 C38.77546875 64.66839844 37.8009375 65.39929688 36.796875 66.15234375 C31.59359382 69.58970688 26.10574197 69.66824462 20 69 C15.36212658 67.49561417 11.36603449 65.43631468 9 61 C9 60.34 9 59.68 9 59 C8.34 59 7.68 59 7 59 C6.79375 59.556875 6.5875 60.11375 6.375 60.6875 C4.46083151 63.90678336 2.28815074 66.23749547 -1 68 C-5.37856786 68.90192331 -8.79897688 68.58716686 -12.8125 66.625 C-21.42103399 56.29475921 -20.5245311 42.06069721 -19.50390625 29.3984375 C-18.52961579 19.76688033 -16.867222 9.2105831 -10 2 C-6.80896653 -0.36754096 -3.9055464 -0.47823017 0 0 Z M-5 7 C-11.90124753 15.55908911 -11.62233286 26.50345804 -12 37 C-5.45691197 29.16221582 -0.34430228 19.49116356 -1 9 C-2.32 8.34 -3.64 7.68 -5 7 Z M123 7 C120.18551763 11.04051715 119.39790689 14.38661966 118.8125 19.25 C118.73209473 19.9087915 118.65168945 20.56758301 118.56884766 21.24633789 C117.99919016 26.20138644 117.82529941 31.02103316 118 36 C120.73284006 33.26715994 121.45185189 30.10806322 122.5625 26.5 C122.78574951 25.78328125 123.00899902 25.0665625 123.23901367 24.328125 C124.86292114 18.91550573 125.85014202 13.6673562 126 8 C125.01 7.67 124.02 7.34 123 7 Z M276 7 C273.08941398 11.10671726 272.31553173 14.90678688 271.8125 19.8125 C271.73064453 20.48603516 271.64878906 21.15957031 271.56445312 21.85351562 C271.02499077 26.59081109 270.93061363 31.23369008 271 36 C273.73284006 33.26715994 274.45185189 30.10806322 275.5625 26.5 C275.78574951 25.78328125 276.00899902 25.0665625 276.23901367 24.328125 C277.86292114 18.91550573 278.85014202 13.6673562 279 8 C278.01 7.67 277.02 7.34 276 7 Z M99 39 C94.79175811 44.82574203 93.88032202 50.94263578 95 58 C96.4435848 60.8677118 96.4435848 60.8677118 99 62 C101.49192611 62.38894914 101.49192611 62.38894914 104 61 C108.50340998 56.83017595 111.67100457 52.45445202 112.265625 46.2109375 C112.26046875 45.27507813 112.2553125 44.33921875 112.25 43.375 C112.25515625 42.43398438 112.2603125 41.49296875 112.265625 40.5234375 C112.17167307 37.75424779 112.17167307 37.75424779 110 35 C104.92428307 34.21044403 102.4935419 35.32258747 99 39 Z M252 39 C247.79175811 44.82574203 246.88032202 50.94263578 248 58 C249.4435848 60.8677118 249.4435848 60.8677118 252 62 C254.49192611 62.38894914 254.49192611 62.38894914 257 61 C261.50340998 56.83017595 264.67100457 52.45445202 265.265625 46.2109375 C265.26046875 45.27507813 265.2553125 44.33921875 265.25 43.375 C265.25515625 42.43398438 265.2603125 41.49296875 265.265625 40.5234375 C265.17167307 37.75424779 265.17167307 37.75424779 263 35 C257.92428307 34.21044403 255.4935419 35.32258747 252 39 Z M18 38 C15.99821137 39.80495431 15.99821137 39.80495431 15 42 C15.39370741 44.10160479 15.39370741 44.10160479 16 46 C22.20495906 47.27704659 22.20495906 47.27704659 28.0625 45.375 C30.15683777 43.15566001 30.15683777 43.15566001 30.625 40.4375 C30.2108053 37.75986221 30.2108053 37.75986221 27.5625 36.1875 C23.44277419 34.27835877 21.95775603 35.78365662 18 38 Z M54 40 C50.99060847 44.56597335 50.25547358 48.63505477 50 54 C50.89461542 57.35480783 51.99057561 60.13208141 55 62 C58.92012358 62 61.16973561 61.66882409 64.25 59.1875 C67.5251429 53.22206115 69.56185993 45.84990936 69 39 C66.95648862 36.80511741 65.56785501 36.10460487 62.625 35.5625 C58.9197886 36.18003523 56.88529183 37.61649805 54 40 Z M178 38 C176.62821535 40.29990661 175.86959151 42.4395361 175 45 C179.32100896 47.22597431 182.30317025 47.13071827 187 46 C189.58455285 44.10466125 189.96275506 43.11173483 191 40 C189.67672977 37.63204274 188.60731223 36.31412702 186.1875 35.0625 C182.70228499 34.96292243 180.86070525 36.05228579 178 38 Z M215 38 C212.99821137 39.80495431 212.99821137 39.80495431 212 42 C212.39370741 44.10160479 212.39370741 44.10160479 213 46 C219.20495906 47.27704659 219.20495906 47.27704659 225.0625 45.375 C227.15683777 43.15566001 227.15683777 43.15566001 227.625 40.4375 C227.2108053 37.75986221 227.2108053 37.75986221 224.5625 36.1875 C220.44277419 34.27835877 218.95775603 35.78365662 215 38 Z M301.8125 35.9375 C298.13272411 38.63600232 297.4496729 40.73151869 296 45 C300.32100896 47.22597431 303.30317025 47.13071827 308 46 C310.58455285 44.10466125 310.96275506 43.11173483 312 40 C311.31009613 36.76273929 311.31009613 36.76273929 308.3125 35.625 C304.99484471 34.7388022 304.99484471 34.7388022 301.8125 35.9375 Z " fill="#272727" transform="translate(31,17)"/>
<path d="M0 0 C0.66 0.33 1.32 0.66 2 1 C-0.97 3.97 -3.94 6.94 -7 10 C-7.33 9.34 -7.66 8.68 -8 8 C-7.04578192 6.85073734 -6.08647955 5.70569459 -5.125 4.5625 C-4.59132813 3.92441406 -4.05765625 3.28632812 -3.5078125 2.62890625 C-2 1 -2 1 0 0 Z " fill="#575757" transform="translate(85,48)"/>
<path d="M0 0 C0.99 0.33 1.98 0.66 3 1 C0.69 3.31 -1.62 5.62 -4 8 C-4.33 7.34 -4.66 6.68 -5 6 C-3.35 4.02 -1.7 2.04 0 0 Z " fill="#525252" transform="translate(206,48)"/>
<path d="M0 0 C-1.49097658 3.7952131 -3.75700849 5.61042731 -7 8 C-4.18918919 0 -4.18918919 0 0 0 Z " fill="#595959" transform="translate(329,48)"/>
<path d="M0 0 C0.66 0.33 1.32 0.66 2 1 C-0.31 3.31 -2.62 5.62 -5 8 C-5 5 -5 5 -2.5 2.3125 C-1.675 1.549375 -0.85 0.78625 0 0 Z " fill="#6F6F6F" transform="translate(47,47)"/>
</svg>
